<?xml version="1.0" encoding="utf-8"?>
<!-- Generator: Adobe Illustrator 16.0.3, SVG Export Plug-In . SVG Version: 6.00 Build 0)  -->
<!DOCTYPE svg PUBLIC "-//W3C//DTD SVG 1.1//EN" "http://www.w3.org/Graphics/SVG/1.1/DTD/svg11.dtd">
<svg version="1.1" id="Layer_1" xmlns="http://www.w3.org/2000/svg" xmlns:xlink="http://www.w3.org/1999/xlink" x="0px" y="0px"
	 width="26.166px" height="24.333px" viewBox="36.75 37.917 26.166 24.333" enable-background="new 36.75 37.917 26.166 24.333"
	 xml:space="preserve">
<g id="Shopping_Cart">
	<g>
		<path fill="#FFFFFF" d="M61.298,51.343C61.982,51.267,62.5,50.688,62.5,50v-8.108c0-0.745-0.604-1.351-1.352-1.351H43.466
			l-1.631-1.631c-0.254-0.254-0.598-0.396-0.956-0.396h-2.028c-0.745,0-1.351,0.604-1.351,1.351c0,0.746,0.605,1.351,1.351,1.351
			h1.468l1.235,1.236V50v2.027v4.054c0,1.861,1.515,3.378,3.378,3.378h0.676v0.675c0,0.747,0.605,1.353,1.351,1.353
			c0.747,0,1.351-0.604,1.351-1.353v-0.675h9.459v0.675c0,0.747,0.605,1.353,1.353,1.353c0.746,0,1.351-0.604,1.351-1.353v-0.675
			h0.676c0.747,0,1.352-0.604,1.352-1.351c0-0.748-0.604-1.353-1.352-1.353H44.934c-0.373,0-0.676-0.303-0.676-0.675v-2.845
			L61.298,51.343z M51.126,43.243v2.084h-2.884v-2.084H51.126z M55.814,43.243v2.084h-2.886v-2.084H55.814z M59.797,43.243v2.084
			h-2.182v-2.084H59.797z M52.929,49.553v-2.424h2.885v2.104L52.929,49.553z M48.242,50.074v-2.945h2.884v2.625L48.242,50.074z
			 M44.257,50v-2.871h2.183v3.142c0,0.002,0,0.003,0,0.004l-2.183,0.243V50z M57.615,49.033v-1.904h2.182v1.662L57.615,49.033z
			 M46.44,45.327h-2.183v-2.084h2.183V45.327z"/>
	</g>
</g>
</svg>
